<svg height="511pt" viewBox="-89 0 511 511.99981" width="511pt" xmlns="http://www.w3.org/2000/svg"><path d="m180.695312 256.316406h-26.734374c-.117188 0-.238282-.003906-.355469-.007812-13.925781-.644532-24.835938-12.074219-24.835938-26.023438v-15.980468c0-10.636719 6.363281-20.105469 16.207031-24.125.925782-.378907 1.917969-.574219 2.921876-.574219h38.863281c1.003906 0 1.996093.195312 2.921875.574219 9.84375 4.019531 16.203125 13.488281 16.203125 24.125v15.980468c0 13.949219-10.90625 25.378906-24.832031 26.023438-.121094.003906-.238282.007812-.359376.007812zm-26.53125-15.453125h26.328126c5.585937-.339843 9.941406-4.953125 9.941406-10.578125v-15.980468c0-3.882813-2.082032-7.382813-5.402344-9.246094h-35.402344c-3.320312 1.863281-5.40625 5.363281-5.40625 9.246094v15.980468c0 5.625 4.351563 10.242188 9.941406 10.578125zm0 0" fill="#e4eaf7"/><path d="m291.835938 147.097656-116.355469 55.628906c-5.15625 2.464844-11.148438 2.464844-16.304688 0l-116.355469-55.628906c-8.824218-4.21875-14.441406-13.128906-14.441406-22.910156v-124.1875h277.894532v124.1875c0 9.78125-5.613282 18.691406-14.4375 22.910156zm0 0" fill="#fc477e"/><path d="m111.179688 179.777344 47.996093 22.949218c5.15625 2.464844 11.148438 2.464844 16.304688 0l47.996093-22.949218v-179.777344h-112.296874zm0 0" fill="#e4eaf7"/><path d="m223.476562 0v179.777344l68.359376-32.679688c8.824218-4.21875 14.441406-13.128906 14.441406-22.910156v-124.1875zm0 0" fill="#6bd"/><path d="m320.613281 27.085938h-306.570312c-7.480469 0-13.542969-6.0625-13.542969-13.542969s6.0625-13.542969 13.542969-13.542969h306.570312c7.480469 0 13.542969 6.0625 13.542969 13.542969 0 7.476562-6.0625 13.542969-13.542969 13.542969zm0 0" fill="#ff8533"/><path d="m177.648438 240.484375 32.582031 86.65625 92.488281 4.210937c10.164062.460938 14.328125 13.277344 6.375 19.628907l-72.347656 57.765625 24.574218 89.261718c2.703126 9.8125-8.199218 17.734376-16.695312 12.132813l-77.296875-50.957031-77.296875 50.957031c-8.496094 5.597656-19.398438-2.320313-16.699219-12.132813l24.578125-89.261718-72.347656-57.765625c-7.953125-6.351563-3.789062-19.167969 6.375-19.628907l92.488281-4.210937 32.582031-86.65625c3.582032-9.527344 17.058594-9.527344 20.640626 0zm0 0" fill="#ff8533"/><path d="m127.765625 396.996094-42.601563-34.015625c-2.554687-2.039063-1.21875-6.15625 2.046876-6.304688l54.460937-2.480469c1.417969-.0625 2.65625-.964843 3.152344-2.289062l19.1875-51.03125c1.152343-3.058594 5.480469-3.058594 6.628906 0l19.1875 51.03125c.496094 1.324219 1.738281 2.226562 3.152344 2.289062l54.460937 2.480469c3.265625.148438 4.601563 4.265625 2.050782 6.304688l-42.605469 34.015625c-1.105469.886718-1.578125 2.34375-1.203125 3.707031l14.472656 52.5625c.867188 3.152344-2.632812 5.695313-5.363281 3.898437l-45.515625-30.007812c-1.183594-.777344-2.714844-.777344-3.898438 0l-45.515625 30.007812c-2.730469 1.796876-6.230469-.746093-5.363281-3.898437l14.472656-52.5625c.375-1.363281-.101562-2.820313-1.207031-3.707031zm0 0" fill="#fcdf6c"/><path d="m247.445312 356.675781-45.921874-2.089843-49.496094 39.519531 9.753906 35.421875 3.597656-2.371094c1.183594-.777344 2.714844-.777344 3.898438 0l45.515625 30.007812c2.730469 1.796876 6.230469-.746093 5.363281-3.898437l-14.472656-52.5625c-.375-1.363281.097656-2.820313 1.203125-3.707031l42.605469-34.015625c2.554687-2.039063 1.21875-6.15625-2.046876-6.304688zm0 0" fill="#f4b425"/><path d="m291.835938 147.097656-116.355469 55.628906c-5.15625 2.464844-11.148438 2.464844-16.304688 0l-116.355469-55.628906c-8.824218-4.21875-14.441406-13.128906-14.441406-22.910156v-124.1875h277.894532v124.1875c0 9.78125-5.613282 18.691406-14.4375 22.910156zm0 0" fill="#fc477e"/><path d="m111.179688 179.777344 47.996093 22.949218c5.15625 2.464844 11.148438 2.464844 16.304688 0l47.996093-22.949218v-179.777344h-112.296874zm0 0" fill="#e4eaf7"/><path d="m223.476562 0v179.777344l68.359376-32.679688c8.824218-4.21875 14.441406-13.128906 14.441406-22.910156v-124.1875zm0 0" fill="#6bd"/><path d="m252.335938 0v98.035156c0 9.78125-5.617188 18.691406-14.441407 22.910156l-14.417969 6.894532v51.9375l68.355469-32.679688c8.824219-4.21875 14.441407-13.128906 14.441407-22.910156v-124.1875zm0 0" fill="#52a7c9"/><path d="m320.613281 27.085938h-306.570312c-7.480469 0-13.542969-6.0625-13.542969-13.542969s6.0625-13.542969 13.542969-13.542969h306.570312c7.480469 0 13.542969 6.0625 13.542969 13.542969 0 7.476562-6.0625 13.542969-13.542969 13.542969zm0 0" fill="#ff8533"/><path d="m113.390625 180.472656-2.210937-1.058594v.363282l47.996093 22.949218c5.15625 2.464844 11.148438 2.464844 16.304688 0l47.996093-22.949218v-51.9375zm0 0" fill="#c3c8d0"/></svg>